<!-- icon666.com - MILLIONS OF FREE VECTOR ICONS --><svg version="1.1" id="Layer_1" xmlns="http://www.w3.org/2000/svg" xmlns:xlink="http://www.w3.org/1999/xlink" x="0px" y="0px" viewBox="0 0 512 512" style="enable-background:new 0 0 512 512;" xml:space="preserve"><g><g><path d="M399.852,165.061l-31.845,42.458v250.245h63.688V207.519L399.852,165.061z M415.959,414.259h-24.615v15.738h24.614v12.03 h-32.213V212.765l16.107-21.475l16.107,21.475V414.259z" fill="#000000" style="fill: rgb(65, 64, 62);"></path></g></g><g><g><path d="M0,30.261v367.212h359.869v-15.738h-96.525v-75.812h96.549v-15.738h-96.549v-72.09h96.549v-15.738h-96.549v-68.228 h232.918v72.393h-56.656v15.738h56.656v72.393h-56.656v15.738h56.656v71.344h-56.656v15.738H512V30.261H0z M247.607,381.735 H15.738v-75.812h231.869V381.735z M247.607,290.185H15.738v-72.09h231.869V290.185z M247.607,202.357H15.738v-68.228h231.869 V202.357z M496.262,118.391H15.738V45.997h480.525V118.391z" fill="#000000" style="fill: rgb(65, 64, 62);"></path></g></g><g><g><rect x="367.885" y="466.004" width="63.935" height="15.738" fill="#000000" style="fill: rgb(65, 64, 62);"></rect></g></g></svg>