<svg version="1.1" id="Capa_1" xmlns="http://www.w3.org/2000/svg" xmlns:xlink="http://www.w3.org/1999/xlink" x="0px" y="0px" viewBox="0 0 512 512" style="enable-background:new 0 0 512 512;" xml:space="preserve"><g><g><path d="M392.604,79.581c-2.158-6.644-7.793-11.394-14.706-12.4l-38.048-5.527l-17.016-34.476 c-3.09-6.264-9.35-10.156-16.334-10.156c-6.986,0-13.245,3.892-16.335,10.154L273.15,61.652l-38.049,5.528 c-6.912,1.005-12.546,5.756-14.705,12.399c-2.157,6.643-0.39,13.798,4.61,18.671l27.532,26.837l-6.499,37.893 c-1.181,6.884,1.596,13.711,7.245,17.817c5.651,4.105,12.998,4.638,19.186,1.387l34.03-17.891l34.033,17.892 c2.689,1.413,5.599,2.111,8.492,2.111c3.762,0,7.497-1.179,10.692-3.499c5.651-4.106,8.426-10.933,7.245-17.816l-6.499-37.893 l27.53-26.836C392.994,93.379,394.762,86.224,392.604,79.581z" fill="#000000" style="fill: rgb(65, 64, 62);"></path></g></g><g><g><path d="M511.096,243.742c-2.158-6.644-7.793-11.394-14.706-12.4l-38.049-5.528l-17.015-34.477 c-3.091-6.263-9.35-10.154-16.335-10.154c-6.985,0-13.244,3.892-16.334,10.154l-17.016,34.477l-38.049,5.528 c-6.912,1.005-12.546,5.756-14.705,12.399c-2.157,6.643-0.39,13.798,4.611,18.671l27.531,26.838l-6.499,37.892 c-1.181,6.884,1.596,13.711,7.245,17.817c5.652,4.105,13.001,4.639,19.186,1.387l34.03-17.892l34.033,17.893 c2.689,1.413,5.599,2.111,8.492,2.111c3.762,0,7.497-1.179,10.692-3.5c5.651-4.106,8.426-10.933,7.245-17.816l-6.499-37.893 l27.53-26.836C511.486,257.54,513.253,250.386,511.096,243.742z" fill="#000000" style="fill: rgb(65, 64, 62);"></path></g></g><g><g><path d="M457.176,394.927c-0.018-0.25-0.037-0.504-0.066-0.758c-0.029-0.256-0.069-0.51-0.111-0.764 c-0.025-0.149-0.035-0.297-0.065-0.446c-0.016-0.083-0.043-0.161-0.061-0.243c-0.056-0.261-0.124-0.518-0.194-0.777 c-0.061-0.225-0.119-0.451-0.19-0.671c-0.077-0.239-0.167-0.473-0.255-0.709c-0.086-0.228-0.168-0.457-0.265-0.679 c-0.095-0.22-0.205-0.434-0.311-0.651c-0.11-0.223-0.216-0.448-0.336-0.665c-0.116-0.209-0.247-0.411-0.373-0.616 c-0.13-0.21-0.257-0.422-0.397-0.625c-0.137-0.198-0.288-0.388-0.436-0.581c-0.15-0.196-0.297-0.394-0.457-0.582 c-0.154-0.182-0.321-0.354-0.484-0.53c-0.174-0.186-0.345-0.372-0.529-0.549c-0.166-0.16-0.343-0.313-0.518-0.467 c-0.199-0.176-0.399-0.35-0.608-0.516c-0.067-0.053-0.125-0.112-0.193-0.163c-0.123-0.094-0.254-0.171-0.38-0.261 c-0.205-0.147-0.411-0.292-0.624-0.429c-0.219-0.141-0.441-0.273-0.666-0.401c-0.193-0.111-0.388-0.219-0.587-0.321 c-0.246-0.127-0.494-0.245-0.744-0.357c-0.192-0.086-0.384-0.168-0.58-0.246c-0.256-0.102-0.515-0.197-0.775-0.284 c-0.205-0.069-0.412-0.133-0.621-0.193c-0.252-0.072-0.505-0.138-0.759-0.197c-0.228-0.053-0.457-0.1-0.689-0.142 c-0.24-0.044-0.48-0.082-0.722-0.114c-0.246-0.033-0.492-0.059-0.741-0.08c-0.237-0.019-0.474-0.032-0.712-0.041 c-0.247-0.009-0.495-0.012-0.746-0.008c-0.251,0.004-0.502,0.016-0.753,0.033c-0.23,0.015-0.46,0.033-0.692,0.059 c-0.282,0.032-0.563,0.075-0.843,0.122c-0.132,0.022-0.263,0.031-0.395,0.057c-12.039,2.372-24.39,3.575-36.709,3.575 c-120.86,0-219.189-114.767-219.189-255.837c0-35.1,5.985-69.106,17.787-101.072c0.033-0.091,0.054-0.183,0.085-0.273 c0.091-0.261,0.171-0.526,0.248-0.792c0.062-0.214,0.124-0.428,0.175-0.644c0.062-0.257,0.111-0.517,0.159-0.777 c0.043-0.23,0.086-0.46,0.118-0.691c0.033-0.243,0.054-0.489,0.075-0.734c0.022-0.25,0.044-0.5,0.053-0.75 c0.008-0.226,0.004-0.453,0.002-0.681c-0.003-0.27-0.006-0.54-0.023-0.808c-0.013-0.21-0.038-0.419-0.06-0.63 c-0.031-0.287-0.064-0.573-0.111-0.856c-0.032-0.196-0.074-0.392-0.114-0.589c-0.061-0.295-0.127-0.588-0.205-0.878 c-0.023-0.084-0.035-0.168-0.059-0.251c-0.033-0.116-0.081-0.225-0.117-0.34c-0.085-0.269-0.175-0.537-0.275-0.801 c-0.083-0.22-0.171-0.436-0.263-0.652c-0.096-0.222-0.197-0.441-0.303-0.659c-0.115-0.236-0.235-0.468-0.362-0.697 c-0.105-0.189-0.215-0.374-0.328-0.559c-0.143-0.233-0.29-0.462-0.444-0.687c-0.122-0.177-0.25-0.349-0.38-0.521 c-0.159-0.21-0.321-0.417-0.49-0.618c-0.15-0.178-0.307-0.351-0.466-0.523c-0.164-0.177-0.33-0.351-0.503-0.521 c-0.182-0.178-0.371-0.35-0.564-0.52c-0.167-0.148-0.336-0.293-0.51-0.433c-0.206-0.166-0.418-0.325-0.634-0.48 c-0.181-0.131-0.363-0.258-0.551-0.38c-0.213-0.14-0.432-0.274-0.655-0.404c-0.213-0.124-0.427-0.243-0.647-0.357 c-0.204-0.106-0.41-0.208-0.622-0.306c-0.258-0.12-0.52-0.23-0.785-0.335c-0.111-0.044-0.215-0.099-0.328-0.14 c-0.081-0.03-0.164-0.048-0.245-0.077c-0.283-0.099-0.571-0.186-0.86-0.269c-0.194-0.055-0.387-0.111-0.583-0.158 c-0.276-0.067-0.557-0.12-0.838-0.172c-0.211-0.039-0.422-0.079-0.635-0.108c-0.26-0.036-0.523-0.058-0.786-0.081 c-0.233-0.02-0.466-0.041-0.7-0.049c-0.241-0.009-0.484-0.005-0.728-0.002c-0.254,0.003-0.508,0.006-0.761,0.022 c-0.225,0.014-0.45,0.04-0.676,0.064c-0.271,0.029-0.541,0.06-0.809,0.104c-0.212,0.035-0.424,0.08-0.638,0.124 c-0.276,0.058-0.551,0.119-0.823,0.192c-0.091,0.024-0.183,0.038-0.274,0.064c-51.7,14.875-98.257,46.732-131.092,89.704 C17.933,142.271,0,195.35,0,251.368C0,318.957,26.321,382.5,74.113,430.293c47.792,47.793,111.336,74.113,178.925,74.113 c40.083,0,78.424-9.103,113.96-27.057c33.723-17.038,63.726-41.916,86.808-71.958c0.008-0.01,0.016-0.02,0.024-0.03 c0.097-0.127,0.2-0.25,0.297-0.377c0.079-0.103,0.142-0.213,0.218-0.317c0.172-0.237,0.34-0.477,0.498-0.725 c0.12-0.187,0.231-0.376,0.342-0.567c0.132-0.228,0.259-0.457,0.379-0.693c0.109-0.212,0.21-0.426,0.308-0.643 c0.102-0.226,0.199-0.453,0.29-0.685c0.088-0.224,0.171-0.449,0.248-0.676c0.081-0.237,0.155-0.477,0.224-0.718 c0.063-0.222,0.121-0.443,0.173-0.668c0.06-0.256,0.113-0.515,0.16-0.775c0.038-0.213,0.072-0.426,0.101-0.642 c0.037-0.27,0.066-0.543,0.088-0.816c0.017-0.213,0.029-0.425,0.037-0.639c0.01-0.27,0.014-0.541,0.009-0.813 C457.201,395.382,457.19,395.155,457.176,394.927z" fill="#000000" style="fill: rgb(65, 64, 62);"></path></g></g></svg>